<svg width="500" height="500" viewBox="0 0 500 500" fill="none" xmlns="http://www.w3.org/2000/svg">
<rect width="500" height="500" fill="#434C59"/>
<path d="M124.826 283.38H131.74L139.042 301.195H139.353L146.655 283.38H153.568V309.895H148.131V292.637H147.91L141.049 309.766H137.346L130.484 292.572H130.264V309.895H124.826V283.38Z" fill="#7F8CA0"/>
<path d="M158.083 309.895V290.009H163.599V309.895H158.083ZM160.854 287.445C160.034 287.445 159.331 287.173 158.744 286.63C158.165 286.077 157.876 285.417 157.876 284.649C157.876 283.889 158.165 283.238 158.744 282.694C159.331 282.141 160.034 281.865 160.854 281.865C161.674 281.865 162.373 282.141 162.951 282.694C163.538 283.238 163.832 283.889 163.832 284.649C163.832 285.417 163.538 286.077 162.951 286.63C162.373 287.173 161.674 287.445 160.854 287.445Z" fill="#7F8CA0"/>
<path d="M184.563 295.68L179.514 295.99C179.427 295.559 179.242 295.17 178.957 294.825C178.672 294.471 178.297 294.191 177.831 293.983C177.373 293.768 176.825 293.66 176.186 293.66C175.332 293.66 174.611 293.841 174.024 294.204C173.437 294.557 173.144 295.032 173.144 295.628C173.144 296.102 173.334 296.504 173.713 296.832C174.093 297.16 174.745 297.423 175.668 297.622L179.268 298.347C181.201 298.744 182.642 299.382 183.592 300.263C184.541 301.143 185.016 302.3 185.016 303.732C185.016 305.036 184.632 306.179 183.864 307.163C183.104 308.147 182.06 308.916 180.731 309.468C179.41 310.012 177.887 310.284 176.16 310.284C173.528 310.284 171.431 309.735 169.868 308.639C168.315 307.535 167.404 306.033 167.136 304.134L172.561 303.849C172.725 304.652 173.122 305.265 173.752 305.687C174.382 306.102 175.189 306.309 176.173 306.309C177.14 306.309 177.917 306.123 178.504 305.752C179.099 305.372 179.401 304.885 179.41 304.289C179.401 303.789 179.19 303.379 178.776 303.059C178.361 302.731 177.723 302.481 176.86 302.308L173.416 301.622C171.474 301.234 170.028 300.56 169.079 299.602C168.138 298.644 167.667 297.423 167.667 295.938C167.667 294.661 168.013 293.561 168.703 292.637C169.402 291.713 170.382 291.001 171.642 290.501C172.911 290 174.395 289.75 176.096 289.75C178.607 289.75 180.584 290.281 182.025 291.342C183.475 292.404 184.321 293.85 184.563 295.68Z" fill="#7F8CA0"/>
<path d="M205.035 295.68L199.986 295.99C199.9 295.559 199.714 295.17 199.429 294.825C199.144 294.471 198.769 294.191 198.303 293.983C197.845 293.768 197.297 293.66 196.659 293.66C195.804 293.66 195.083 293.841 194.496 294.204C193.909 294.557 193.616 295.032 193.616 295.628C193.616 296.102 193.806 296.504 194.186 296.832C194.565 297.16 195.217 297.423 196.141 297.622L199.74 298.347C201.673 298.744 203.115 299.382 204.064 300.263C205.014 301.143 205.488 302.3 205.488 303.732C205.488 305.036 205.104 306.179 204.336 307.163C203.576 308.147 202.532 308.916 201.203 309.468C199.882 310.012 198.359 310.284 196.633 310.284C194 310.284 191.903 309.735 190.34 308.639C188.787 307.535 187.876 306.033 187.609 304.134L193.033 303.849C193.197 304.652 193.594 305.265 194.225 305.687C194.855 306.102 195.662 306.309 196.646 306.309C197.612 306.309 198.389 306.123 198.976 305.752C199.572 305.372 199.874 304.885 199.882 304.289C199.874 303.789 199.662 303.379 199.248 303.059C198.834 302.731 198.195 302.481 197.332 302.308L193.888 301.622C191.946 301.234 190.5 300.56 189.551 299.602C188.61 298.644 188.14 297.423 188.14 295.938C188.14 294.661 188.485 293.561 189.175 292.637C189.874 291.713 190.854 291.001 192.114 290.501C193.383 290 194.868 289.75 196.568 289.75C199.08 289.75 201.056 290.281 202.498 291.342C203.948 292.404 204.793 293.85 205.035 295.68Z" fill="#7F8CA0"/>
<path d="M208.961 309.895V290.009H214.477V309.895H208.961ZM211.732 287.445C210.912 287.445 210.209 287.173 209.622 286.63C209.043 286.077 208.754 285.417 208.754 284.649C208.754 283.889 209.043 283.238 209.622 282.694C210.209 282.141 210.912 281.865 211.732 281.865C212.552 281.865 213.251 282.141 213.829 282.694C214.416 283.238 214.71 283.889 214.71 284.649C214.71 285.417 214.416 286.077 213.829 286.63C213.251 287.173 212.552 287.445 211.732 287.445Z" fill="#7F8CA0"/>
<path d="M224.41 298.398V309.895H218.895V290.009H224.151V293.517H224.384C224.824 292.361 225.562 291.446 226.598 290.773C227.634 290.091 228.89 289.75 230.366 289.75C231.747 289.75 232.951 290.052 233.978 290.656C235.005 291.26 235.803 292.123 236.373 293.246C236.943 294.359 237.228 295.688 237.228 297.233V309.895H231.712V298.217C231.721 297 231.41 296.051 230.78 295.369C230.15 294.678 229.282 294.333 228.178 294.333C227.435 294.333 226.779 294.493 226.21 294.812C225.649 295.131 225.209 295.598 224.889 296.21C224.578 296.815 224.419 297.544 224.41 298.398Z" fill="#7F8CA0"/>
<path d="M250.534 317.767C248.747 317.767 247.215 317.521 245.937 317.029C244.669 316.546 243.659 315.885 242.908 315.048C242.157 314.211 241.669 313.27 241.445 312.226L246.546 311.539C246.701 311.936 246.947 312.308 247.284 312.653C247.621 312.998 248.065 313.274 248.617 313.481C249.179 313.697 249.86 313.805 250.663 313.805C251.863 313.805 252.851 313.512 253.628 312.925C254.413 312.346 254.806 311.375 254.806 310.012V306.374H254.573C254.331 306.926 253.969 307.448 253.486 307.94C253.002 308.432 252.381 308.834 251.621 309.144C250.862 309.455 249.955 309.61 248.902 309.61C247.409 309.61 246.05 309.265 244.824 308.575C243.607 307.875 242.636 306.81 241.911 305.377C241.195 303.935 240.836 302.114 240.836 299.913C240.836 297.66 241.203 295.779 241.937 294.268C242.671 292.758 243.646 291.627 244.863 290.876C246.089 290.125 247.431 289.75 248.889 289.75C250.003 289.75 250.935 289.94 251.686 290.32C252.437 290.691 253.041 291.157 253.498 291.718C253.965 292.27 254.323 292.814 254.573 293.349H254.78V290.009H260.257V310.089C260.257 311.781 259.842 313.197 259.014 314.336C258.185 315.475 257.037 316.33 255.57 316.899C254.111 317.478 252.433 317.767 250.534 317.767ZM250.65 305.467C251.539 305.467 252.29 305.247 252.903 304.807C253.524 304.358 253.999 303.72 254.327 302.891C254.664 302.054 254.832 301.052 254.832 299.887C254.832 298.722 254.668 297.712 254.34 296.858C254.012 295.995 253.537 295.326 252.916 294.851C252.294 294.376 251.539 294.139 250.65 294.139C249.744 294.139 248.98 294.385 248.359 294.877C247.737 295.36 247.267 296.033 246.947 296.897C246.628 297.76 246.468 298.757 246.468 299.887C246.468 301.035 246.628 302.028 246.947 302.865C247.275 303.694 247.746 304.337 248.359 304.794C248.98 305.243 249.744 305.467 250.65 305.467Z" fill="#7F8CA0"/>
<path d="M273.084 309.895V290.009H278.599V309.895H273.084ZM275.854 287.445C275.034 287.445 274.331 287.173 273.744 286.63C273.166 286.077 272.877 285.417 272.877 284.649C272.877 283.889 273.166 283.238 273.744 282.694C274.331 282.141 275.034 281.865 275.854 281.865C276.674 281.865 277.374 282.141 277.952 282.694C278.539 283.238 278.832 283.889 278.832 284.649C278.832 285.417 278.539 286.077 277.952 286.63C277.374 287.173 276.674 287.445 275.854 287.445Z" fill="#7F8CA0"/>
<path d="M283.017 309.895V290.009H288.274V293.517H288.507C288.921 292.352 289.612 291.433 290.578 290.76C291.545 290.086 292.702 289.75 294.048 289.75C295.412 289.75 296.573 290.091 297.531 290.773C298.489 291.446 299.127 292.361 299.447 293.517H299.654C300.06 292.378 300.793 291.467 301.855 290.786C302.925 290.095 304.19 289.75 305.648 289.75C307.504 289.75 309.01 290.341 310.167 291.524C311.332 292.697 311.915 294.363 311.915 296.521V309.895H306.412V297.609C306.412 296.504 306.119 295.675 305.532 295.123C304.945 294.57 304.211 294.294 303.331 294.294C302.33 294.294 301.549 294.614 300.988 295.252C300.426 295.882 300.146 296.715 300.146 297.751V309.895H294.799V297.492C294.799 296.517 294.518 295.74 293.957 295.162C293.405 294.583 292.676 294.294 291.769 294.294C291.157 294.294 290.604 294.45 290.112 294.76C289.629 295.062 289.245 295.49 288.96 296.042C288.675 296.586 288.533 297.225 288.533 297.958V309.895H283.017Z" fill="#7F8CA0"/>
<path d="M321.942 310.271C320.673 310.271 319.543 310.051 318.55 309.61C317.557 309.162 316.772 308.501 316.194 307.629C315.624 306.749 315.339 305.653 315.339 304.341C315.339 303.236 315.542 302.308 315.948 301.557C316.353 300.806 316.906 300.202 317.605 299.745C318.304 299.287 319.098 298.942 319.987 298.709C320.885 298.476 321.825 298.312 322.809 298.217C323.966 298.096 324.898 297.984 325.606 297.88C326.314 297.768 326.827 297.604 327.147 297.389C327.466 297.173 327.626 296.853 327.626 296.43V296.353C327.626 295.533 327.367 294.898 326.849 294.45C326.34 294.001 325.615 293.776 324.674 293.776C323.681 293.776 322.891 293.996 322.304 294.437C321.718 294.868 321.329 295.412 321.139 296.068L316.038 295.654C316.297 294.445 316.806 293.401 317.566 292.52C318.326 291.631 319.305 290.95 320.505 290.475C321.713 289.992 323.112 289.75 324.7 289.75C325.804 289.75 326.862 289.879 327.872 290.138C328.89 290.397 329.792 290.799 330.578 291.342C331.372 291.886 331.997 292.585 332.455 293.44C332.912 294.286 333.141 295.3 333.141 296.482V309.895H327.91V307.137H327.755C327.436 307.759 327.009 308.307 326.473 308.782C325.938 309.248 325.295 309.615 324.544 309.882C323.793 310.141 322.926 310.271 321.942 310.271ZM323.521 306.464C324.333 306.464 325.049 306.305 325.671 305.985C326.292 305.657 326.78 305.217 327.134 304.665C327.488 304.112 327.664 303.486 327.664 302.787V300.677C327.492 300.789 327.255 300.893 326.952 300.988C326.659 301.074 326.327 301.156 325.956 301.234C325.584 301.303 325.213 301.368 324.842 301.428C324.471 301.48 324.134 301.527 323.832 301.57C323.185 301.665 322.62 301.816 322.136 302.023C321.653 302.231 321.277 302.511 321.01 302.865C320.742 303.21 320.608 303.642 320.608 304.16C320.608 304.911 320.88 305.485 321.424 305.882C321.977 306.27 322.676 306.464 323.521 306.464Z" fill="#7F8CA0"/>
<path d="M346.379 317.767C344.593 317.767 343.06 317.521 341.783 317.029C340.514 316.546 339.504 315.885 338.753 315.048C338.003 314.211 337.515 313.27 337.29 312.226L342.392 311.539C342.547 311.936 342.793 312.308 343.13 312.653C343.466 312.998 343.911 313.274 344.463 313.481C345.024 313.697 345.706 313.805 346.509 313.805C347.708 313.805 348.697 313.512 349.473 312.925C350.259 312.346 350.652 311.375 350.652 310.012V306.374H350.419C350.177 306.926 349.814 307.448 349.331 307.94C348.848 308.432 348.226 308.834 347.467 309.144C346.707 309.455 345.801 309.61 344.748 309.61C343.255 309.61 341.895 309.265 340.67 308.575C339.453 307.875 338.482 306.81 337.757 305.377C337.04 303.935 336.682 302.114 336.682 299.913C336.682 297.66 337.049 295.779 337.782 294.268C338.516 292.758 339.491 291.627 340.708 290.876C341.934 290.125 343.276 289.75 344.735 289.75C345.848 289.75 346.781 289.94 347.531 290.32C348.282 290.691 348.887 291.157 349.344 291.718C349.81 292.27 350.168 292.814 350.419 293.349H350.626V290.009H356.102V310.089C356.102 311.781 355.688 313.197 354.859 314.336C354.031 315.475 352.883 316.33 351.416 316.899C349.957 317.478 348.278 317.767 346.379 317.767ZM346.496 305.467C347.385 305.467 348.136 305.247 348.748 304.807C349.37 304.358 349.845 303.72 350.173 302.891C350.509 302.054 350.678 301.052 350.678 299.887C350.678 298.722 350.514 297.712 350.186 296.858C349.858 295.995 349.383 295.326 348.761 294.851C348.14 294.376 347.385 294.139 346.496 294.139C345.589 294.139 344.826 294.385 344.204 294.877C343.583 295.36 343.112 296.033 342.793 296.897C342.474 297.76 342.314 298.757 342.314 299.887C342.314 301.035 342.474 302.028 342.793 302.865C343.121 303.694 343.591 304.337 344.204 304.794C344.826 305.243 345.589 305.467 346.496 305.467Z" fill="#7F8CA0"/>
<path d="M369.554 310.284C367.508 310.284 365.748 309.869 364.272 309.041C362.804 308.203 361.674 307.021 360.88 305.493C360.086 303.957 359.689 302.14 359.689 300.043C359.689 297.997 360.086 296.202 360.88 294.657C361.674 293.112 362.791 291.908 364.233 291.045C365.683 290.181 367.383 289.75 369.334 289.75C370.646 289.75 371.867 289.961 372.998 290.384C374.137 290.799 375.13 291.424 375.976 292.262C376.83 293.099 377.495 294.152 377.969 295.421C378.444 296.681 378.682 298.157 378.682 299.848V301.363H361.89V297.945H373.49C373.49 297.151 373.317 296.448 372.972 295.835C372.627 295.222 372.148 294.743 371.535 294.398C370.931 294.044 370.227 293.867 369.425 293.867C368.587 293.867 367.845 294.061 367.198 294.45C366.559 294.829 366.058 295.343 365.696 295.99C365.333 296.629 365.148 297.341 365.139 298.126V301.376C365.139 302.36 365.32 303.21 365.683 303.927C366.054 304.643 366.576 305.195 367.249 305.584C367.923 305.972 368.721 306.166 369.645 306.166C370.257 306.166 370.819 306.08 371.328 305.908C371.837 305.735 372.273 305.476 372.635 305.131C372.998 304.785 373.274 304.363 373.464 303.862L378.565 304.199C378.306 305.424 377.775 306.494 376.973 307.409C376.179 308.316 375.151 309.023 373.891 309.533C372.64 310.033 371.194 310.284 369.554 310.284Z" fill="#7F8CA0"/>
<path d="M230.902 221.354C233.41 221.354 235.893 220.86 238.21 219.9C240.527 218.941 242.632 217.534 244.406 215.761C246.179 213.987 247.586 211.882 248.545 209.565C249.505 207.248 249.999 204.765 249.999 202.257C249.999 199.749 249.505 197.266 248.545 194.949C247.586 192.632 246.179 190.526 244.406 188.753C242.632 186.98 240.527 185.573 238.21 184.613C235.893 183.654 233.41 183.16 230.902 183.16C225.837 183.16 220.98 185.172 217.398 188.753C213.817 192.335 211.805 197.192 211.805 202.257C211.805 207.322 213.817 212.179 217.398 215.761C220.98 219.342 225.837 221.354 230.902 221.354V221.354ZM230.902 216.146C228.118 216.15 225.397 215.314 223.096 213.746L242.391 194.451C243.81 196.539 244.633 198.975 244.771 201.495C244.91 204.016 244.359 206.526 243.177 208.757C241.996 210.988 240.229 212.855 238.066 214.157C235.903 215.458 233.426 216.146 230.902 216.146V216.146ZM219.412 210.062C217.594 207.389 216.766 204.166 217.07 200.947C217.373 197.729 218.79 194.717 221.076 192.431C223.362 190.145 226.374 188.728 229.592 188.425C232.811 188.121 236.034 188.949 238.707 190.767L219.412 210.062ZM265.638 208.34C265.638 207.648 265.363 206.984 264.873 206.494C264.384 206.004 263.719 205.729 263.027 205.729C262.334 205.729 261.67 206.004 261.181 206.494C260.691 206.984 260.416 207.648 260.416 208.34C260.416 209.033 260.691 209.697 261.181 210.187C261.67 210.676 262.334 210.951 263.027 210.951C263.719 210.951 264.384 210.676 264.873 210.187C265.363 209.697 265.638 209.033 265.638 208.34ZM230.902 224.826C234.95 224.827 238.924 223.738 242.407 221.675C245.89 219.612 248.754 216.65 250.699 213.1C252.644 209.55 253.598 205.542 253.461 201.496C253.325 197.45 252.103 193.515 249.923 190.104H269.964C272.957 190.104 275.828 191.293 277.944 193.409C280.06 195.526 281.249 198.396 281.249 201.389V241.319C281.249 243.496 280.631 245.531 279.565 247.257L255.471 223.601L255.027 223.198C253.623 222.018 251.849 221.369 250.015 221.365C248.181 221.361 246.404 222.003 244.996 223.177L244.527 223.604L220.433 247.253C219.329 245.471 218.746 243.416 218.749 241.319V221.278C222.376 223.601 226.595 224.833 230.902 224.826ZM255.207 208.34C255.207 210.414 256.031 212.403 257.498 213.869C258.964 215.336 260.953 216.16 263.027 216.16C265.101 216.16 267.09 215.336 268.556 213.869C270.023 212.403 270.846 210.414 270.846 208.34C270.846 206.266 270.023 204.277 268.556 202.811C267.09 201.345 265.101 200.521 263.027 200.521C260.953 200.521 258.964 201.345 257.498 202.811C256.031 204.277 255.207 206.266 255.207 208.34V208.34ZM248.464 227.073L248.176 227.316L224.121 250.934C225.898 252.029 227.946 252.608 230.034 252.604H269.964C272.135 252.604 274.159 251.993 275.878 250.934L251.822 227.319L251.499 227.049C251.054 226.735 250.522 226.569 249.978 226.573C249.434 226.577 248.904 226.752 248.464 227.073V227.073Z" fill="#7F8CA0"/>
</svg>
