<svg width="121" height="19" viewBox="0 0 121 19" fill="none" xmlns="http://www.w3.org/2000/svg">
<g clip-path="url(#clip0_3823_15710)">
<path d="M105.48 12.4706L98.9903 0.94058C98.7003 0.42058 99.2303 -0.17942 99.7703 0.0705798L105.76 2.76058C105.92 2.83058 106.09 2.83058 106.25 2.76058L112.39 0.0505798C112.93 -0.18942 113.46 0.41058 113.16 0.93058L106.54 12.4706C106.3 12.8806 105.72 12.8806 105.48 12.4706Z" fill="#93C5FE"/>
<path d="M114.431 5.78039L120.921 17.3104C121.211 17.8304 120.681 18.4304 120.141 18.1804L114.151 15.4904C113.991 15.4204 113.821 15.4204 113.661 15.4904L107.531 18.1904C106.991 18.4304 106.461 17.8304 106.761 17.3104L113.381 5.77039C113.621 5.36039 114.201 5.36039 114.441 5.77039L114.431 5.78039Z" fill="#0099FA"/>
<path d="M15.39 0V17.99H11.68L4.49 7.61H4.38V17.99H0V0H3.76L10.88 10.37H11.03V0H15.39Z" fill="#F5F9FE"/>
<path d="M17.3906 17.99V0H29.7406V3.53H21.7706V7.22H28.9606V10.76H21.7706V17.99H17.4006H17.3906Z" fill="#F5F9FE"/>
<path d="M30.5898 3.53V0H45.8798V3.53H40.3998V17.99H36.0898V3.53H30.5998H30.5898Z" fill="#F5F9FE"/>
<path d="M45.8496 17.9905V4.50055H50.0396V6.96055H50.1796C50.4296 6.07055 50.8296 5.41055 51.3896 4.97055C51.9496 4.53055 52.5996 4.31055 53.3396 4.31055C53.5396 4.31055 53.7496 4.32055 53.9596 4.35055C54.1696 4.37055 54.3696 4.41055 54.5496 4.46055V8.19055C54.3396 8.12055 54.0696 8.06055 53.7396 8.02055C53.4096 7.98055 53.1196 7.96055 52.8596 7.96055C52.3496 7.96055 51.8896 8.07055 51.4696 8.30055C51.0596 8.52055 50.7396 8.84055 50.5096 9.24055C50.2796 9.64055 50.1696 10.1105 50.1696 10.6505V17.9805H45.8496V17.9905Z" fill="#F5F9FE"/>
<path d="M58.8797 18.2203C58.0097 18.2203 57.2497 18.0803 56.5797 17.7903C55.9097 17.5003 55.3897 17.0603 54.9997 16.4703C54.6197 15.8803 54.4297 15.1403 54.4297 14.2503C54.4297 13.5003 54.5597 12.8703 54.8297 12.3503C55.0997 11.8303 55.4597 11.4203 55.9297 11.0903C56.3997 10.7703 56.9297 10.5203 57.5397 10.3603C58.1497 10.1903 58.7897 10.0803 59.4797 10.0203C60.2497 9.95031 60.8697 9.88031 61.3397 9.80031C61.8097 9.72031 62.1497 9.60031 62.3597 9.46031C62.5797 9.31031 62.6897 9.09031 62.6897 8.82031V8.78031C62.6897 8.33031 62.5297 7.98031 62.2197 7.73031C61.9097 7.48031 61.4897 7.36031 60.9597 7.36031C60.3897 7.36031 59.9297 7.48031 59.5797 7.73031C59.2297 7.98031 59.0097 8.32031 58.9197 8.75031L54.9397 8.61031C55.0597 7.79031 55.3597 7.06031 55.8497 6.41031C56.3397 5.76031 57.0197 5.25031 57.8797 4.88031C58.7497 4.51031 59.7797 4.32031 60.9997 4.32031C61.8697 4.32031 62.6597 4.42031 63.3897 4.63031C64.1197 4.83031 64.7597 5.12031 65.2997 5.51031C65.8397 5.89031 66.2597 6.36031 66.5497 6.92031C66.8497 7.48031 66.9997 8.11031 66.9997 8.83031V18.0003H62.9397V16.1203H62.8297C62.5897 16.5803 62.2797 16.9603 61.8997 17.2803C61.5297 17.6003 61.0897 17.8303 60.5797 17.9903C60.0797 18.1503 59.5097 18.2303 58.8797 18.2303V18.2203ZM60.2097 15.4103C60.6797 15.4103 61.0897 15.3203 61.4597 15.1303C61.8397 14.9403 62.1397 14.6803 62.3597 14.3603C62.5797 14.0303 62.6997 13.6403 62.6997 13.2003V11.9203C62.5797 11.9803 62.4297 12.0403 62.2497 12.1003C62.0797 12.1503 61.8897 12.2003 61.6797 12.2503C61.4697 12.3003 61.2597 12.3403 61.0397 12.3703C60.8197 12.4103 60.6097 12.4403 60.4097 12.4703C59.9997 12.5303 59.6597 12.6303 59.3697 12.7703C59.0897 12.9003 58.8697 13.0803 58.7197 13.3003C58.5697 13.5103 58.4997 13.7603 58.4997 14.0603C58.4997 14.5103 58.6597 14.8403 58.9797 15.0803C59.2997 15.3103 59.7097 15.4303 60.2097 15.4303V15.4103Z" fill="#F5F9FE"/>
<path d="M73.8302 18.19C72.8302 18.19 71.9202 17.93 71.1002 17.42C70.2802 16.91 69.6302 16.13 69.1402 15.1C68.6502 14.07 68.4102 12.79 68.4102 11.26C68.4102 9.73 68.6602 8.37 69.1702 7.34C69.6802 6.32 70.3402 5.56 71.1602 5.06C71.9802 4.57 72.8702 4.32 73.8202 4.32C74.5302 4.32 75.1402 4.44 75.6502 4.69C76.1602 4.93 76.5702 5.24 76.9002 5.62C77.2302 6 77.4802 6.4 77.6502 6.81H77.7402V0H82.0602V17.99H77.7902V15.8H77.6602C77.4802 16.22 77.2201 16.61 76.8801 16.97C76.5401 17.33 76.1202 17.63 75.6202 17.85C75.1202 18.07 74.5301 18.18 73.8401 18.18L73.8302 18.19ZM75.3302 14.84C75.8502 14.84 76.3002 14.69 76.6702 14.4C77.0402 14.1 77.3302 13.68 77.5302 13.14C77.7302 12.6 77.8302 11.97 77.8302 11.24C77.8302 10.51 77.7302 9.87 77.5302 9.33C77.3402 8.8 77.0502 8.39 76.6702 8.1C76.3002 7.81 75.8502 7.67 75.3302 7.67C74.8102 7.67 74.3402 7.82 73.9702 8.11C73.6002 8.4 73.3202 8.82 73.1202 9.35C72.9302 9.88 72.8401 10.51 72.8401 11.24C72.8401 11.97 72.9401 12.6 73.1301 13.14C73.3201 13.68 73.6002 14.1 73.9702 14.4C74.3402 14.69 74.7902 14.84 75.3302 14.84Z" fill="#F5F9FE"/>
<path d="M90.3698 18.2501C88.9498 18.2501 87.7298 17.9701 86.6998 17.4201C85.6798 16.8601 84.8898 16.0601 84.3298 15.0201C83.7798 13.9801 83.5098 12.7401 83.5098 11.3001C83.5098 9.86008 83.7898 8.69008 84.3398 7.65008C84.8898 6.60008 85.6698 5.79008 86.6798 5.21008C87.6898 4.62008 88.8698 4.33008 90.2398 4.33008C91.2098 4.33008 92.0898 4.48008 92.8898 4.78008C93.6898 5.08008 94.3798 5.52008 94.9698 6.11008C95.5498 6.70008 96.0098 7.42008 96.3298 8.28008C96.6498 9.14008 96.8198 10.1201 96.8198 11.2201V12.2901H85.0298V9.79008H92.7998C92.7998 9.33008 92.6898 8.93008 92.4698 8.57008C92.2598 8.21008 91.9698 7.93008 91.5998 7.74008C91.2398 7.54008 90.8098 7.43008 90.3398 7.43008C89.8698 7.43008 89.4198 7.54008 89.0398 7.76008C88.6598 7.97008 88.3498 8.26008 88.1298 8.63008C87.9098 8.99008 87.7898 9.41008 87.7798 9.87008V12.4101C87.7798 12.9601 87.8898 13.4401 88.1098 13.8601C88.3298 14.2701 88.6398 14.5901 89.0398 14.8201C89.4398 15.0501 89.9198 15.1601 90.4698 15.1601C90.8498 15.1601 91.1998 15.1101 91.5098 15.0001C91.8198 14.8901 92.0898 14.7401 92.3098 14.5301C92.5298 14.3301 92.6998 14.0701 92.8098 13.7701L96.7798 13.8801C96.6198 14.7601 96.2498 15.5301 95.6898 16.1901C95.1398 16.8401 94.4098 17.3501 93.5098 17.7101C92.6098 18.0701 91.5698 18.2501 90.3798 18.2501H90.3698Z" fill="#F5F9FE"/>
</g>
<defs>
<clipPath id="clip0_3823_15710">
<rect width="121" height="18.25" fill="white"/>
</clipPath>
</defs>
</svg>
