<svg width="18" height="16" viewBox="0 0 18 16" fill="none" xmlns="http://www.w3.org/2000/svg">
<path d="M12.7349 9.28819C13.1507 8.57008 13.8215 8.57008 14.2373 9.28819L16.8263 13.8331C17.242 14.5512 16.9018 15.137 16.0704 15.137H10.8546C10.0326 15.137 9.6924 14.5512 10.0987 13.8331L12.7349 9.28819ZM7.72705 0.538583C8.14279 -0.179528 8.80421 -0.179528 9.21996 0.538583L9.79634 1.57795L11.157 3.9685C11.4877 4.64882 11.4877 5.45197 11.157 6.13228L6.59319 14.0409C6.17744 14.6835 5.48768 15.0898 4.72232 15.137H0.933344C0.101848 15.137 -0.23831 14.5606 0.177439 13.8331L7.72705 0.538583Z" fill="#E64347"/>
</svg>
