<svg width="14" height="17" viewBox="0 0 14 17" fill="none" xmlns="http://www.w3.org/2000/svg">
<path d="M2.66599 2.4605L6.89299 0L11.12 2.4605L9.56597 3.36948L6.89299 1.81795L4.22005 3.36948L2.66599 2.4605ZM11.12 5.56355L9.56597 4.65458L6.89299 6.2061L4.22005 4.65458L2.66599 5.56355V7.3815L5.33894 8.93303V12.0361L6.89299 12.945L8.44704 12.0361V8.93303L11.12 7.3815V5.56355ZM11.12 10.4845V8.6666L9.56597 9.57558V11.3935L11.12 10.4845ZM12.2234 11.1271L9.55044 12.6786V14.4966L13.7775 12.0361V7.11508L12.2234 8.02405V11.1271ZM10.6693 4.01203L12.2234 4.921V6.73895L13.7775 5.82998V4.01203L12.2234 3.10305L10.6693 4.01203ZM5.33894 13.3368V15.1548L6.89299 16.0638L8.44704 15.1548V13.3368L6.89299 14.2458L5.33894 13.3368ZM2.66599 10.4845L4.22005 11.3935V9.57558L2.66599 8.6666V10.4845ZM5.33894 4.01203L6.89299 4.921L8.44704 4.01203L6.89299 3.10305L5.33894 4.01203ZM1.56259 4.921L3.11664 4.01203L1.56259 3.10305L0.00854492 4.01203V5.82998L1.56259 6.73895V4.921ZM1.56259 8.02405L0.00854492 7.11508V12.0361L4.23555 14.4966V12.6786L1.56259 11.1271V8.02405Z" fill="#F0B92E"/>
</svg>
