<svg width="18" height="16" viewBox="0 0 18 16" fill="none" xmlns="http://www.w3.org/2000/svg">
<path d="M0 8.61855C0.0218785 8.58503 0.0423605 8.55058 0.067032 8.51847C0.0938796 8.48039 0.128378 8.44834 0.168323 8.42437C0.208268 8.4004 0.252779 8.38503 0.299006 8.37924C0.345233 8.37346 0.392157 8.37739 0.436778 8.39078C0.481398 8.40418 0.522733 8.42674 0.558133 8.45702C0.593818 8.48681 0.623059 8.52356 0.64407 8.56502C0.665082 8.60649 0.677422 8.6518 0.680341 8.69819C0.68326 8.74458 0.676693 8.79108 0.661044 8.83485C0.645394 8.87862 0.620991 8.91874 0.589321 8.95277C0.556365 8.98775 0.516362 9.01535 0.471954 9.03374C0.427547 9.05212 0.379744 9.06088 0.331702 9.05943C0.283661 9.05797 0.236477 9.04635 0.19326 9.02532C0.150044 9.00428 0.11178 8.97432 0.0809965 8.93741C0.0512045 8.90343 0.0265335 8.86433 0 8.82755V8.61855Z" fill="#C83D84"/>
<path d="M17.8369 11.6806L17.8686 11.6839V11.8929C17.8582 11.8947 17.8478 11.8958 17.8374 11.8962C17.8225 11.8824 17.8107 11.8658 17.8025 11.8473C17.7944 11.8287 17.7902 11.8087 17.7902 11.7885C17.7901 11.7683 17.7943 11.7483 17.8023 11.7297C17.8103 11.7111 17.8221 11.6944 17.8369 11.6806Z" fill="#C83D84"/>
<path d="M4.34576 7.51856C4.28758 7.51856 4.22892 7.51856 4.1712 7.51856C3.97476 7.506 3.84116 7.37007 3.83977 7.1848C3.83837 6.99953 3.97383 6.85896 4.16841 6.84499C4.22613 6.84034 4.28478 6.84499 4.34251 6.84499C8.53572 6.84499 12.7288 6.84499 16.9217 6.84499C16.9913 6.84203 17.061 6.84421 17.1302 6.85151C17.2118 6.86226 17.2864 6.90324 17.3392 6.96633C17.3921 7.02942 17.4193 7.11004 17.4156 7.19225C17.4158 7.27426 17.3852 7.35336 17.3297 7.41376C17.2742 7.47416 17.198 7.51142 17.1162 7.5181C17.0582 7.52253 16.9999 7.52393 16.9417 7.52229L4.34576 7.51856Z" fill="#C83D84"/>
<path d="M15.4368 9.91277C15.4949 9.91013 15.5531 9.91168 15.6109 9.91742C15.6892 9.92864 15.7612 9.96638 15.815 10.0243C15.8688 10.0823 15.9011 10.1569 15.9065 10.2358C15.9084 10.3148 15.8836 10.3921 15.8363 10.4553C15.7889 10.5186 15.7217 10.5641 15.6454 10.5845C15.577 10.5974 15.5073 10.6024 15.4378 10.5994H4.31233C4.26001 10.6016 4.2076 10.6004 4.15545 10.5957C4.06813 10.5852 3.9878 10.5427 3.93001 10.4764C3.87222 10.4101 3.84109 10.3247 3.84264 10.2368C3.84816 10.1519 3.88477 10.072 3.94549 10.0124C4.00621 9.95277 4.08676 9.91764 4.17174 9.9137C4.22341 9.90951 4.27602 9.9137 4.32862 9.9137L15.4368 9.91277Z" fill="#C83D84"/>
<path d="M6.28253 8.37595C7.82985 8.37595 9.37701 8.37595 10.924 8.37595C11.2299 8.37595 11.4063 8.5938 11.3053 8.84144C11.2836 8.89902 11.2464 8.94949 11.1979 8.98728C11.1493 9.02506 11.0913 9.0487 11.0302 9.05557C10.9723 9.06163 10.9142 9.06349 10.8561 9.06115C7.80238 9.06115 4.74855 9.06115 1.69457 9.06115C1.6193 9.06386 1.54398 9.05761 1.47019 9.04253C1.39329 9.02331 1.32578 8.97724 1.27986 8.91262C1.23393 8.84801 1.21262 8.7691 1.21976 8.69015C1.22417 8.61111 1.25672 8.53625 1.31154 8.47913C1.36636 8.42201 1.43981 8.3864 1.51861 8.37874C1.57667 8.37401 1.63496 8.37276 1.69317 8.37502L6.28253 8.37595Z" fill="#C83D84"/>
<path d="M17.8369 11.6806C17.8369 11.7523 17.8374 11.8245 17.8374 11.8962C17.7661 12.0824 17.6201 12.1365 17.4353 12.136C16.499 12.136 15.5629 12.136 14.6269 12.136H8.26033C8.21378 12.136 8.16723 12.136 8.12068 12.136C7.89724 12.1271 7.74176 11.9805 7.74548 11.7836C7.74921 11.5867 7.89538 11.454 8.11788 11.4517C8.55964 11.448 9.00233 11.4517 9.44362 11.4517C12.1007 11.4517 14.7579 11.4517 17.4153 11.4517C17.6029 11.4485 17.7643 11.4805 17.8369 11.6806Z" fill="#C83D84"/>
<path d="M12.8615 13.6685C11.919 13.6685 10.9767 13.6685 10.0345 13.6685C9.88324 13.6685 9.75522 13.6261 9.67469 13.4981C9.64668 13.4537 9.62968 13.4032 9.62511 13.3509C9.62055 13.2986 9.62855 13.246 9.64845 13.1974C9.66836 13.1488 9.69958 13.1057 9.73953 13.0716C9.77948 13.0375 9.82699 13.0134 9.87812 13.0014C9.95258 12.988 10.0283 12.9827 10.1039 12.9856C11.9532 12.9856 13.8027 12.9856 15.6526 12.9856C15.6875 12.9856 15.7229 12.9856 15.7574 12.9856C15.9757 12.9991 16.1214 13.1402 16.1163 13.3324C16.1111 13.5247 15.9524 13.6657 15.7406 13.6662C14.9614 13.6662 14.1817 13.6662 13.4024 13.6662L12.8615 13.6685Z" fill="#C83D84"/>
<path d="M9.32246 14.5304H12.1466C12.4106 14.5304 12.5623 14.6552 12.5609 14.8679C12.5609 15.0718 12.3901 15.2156 12.142 15.2156C10.2595 15.2156 8.37688 15.2156 6.49409 15.2156C6.20781 15.2156 6.02254 15.0201 6.07979 14.786C6.12076 14.6179 6.24784 14.5309 6.46337 14.5309C7.37512 14.5309 8.28735 14.5309 9.20003 14.5309L9.32246 14.5304Z" fill="#C83D84"/>
<path d="M6.94447 11.5115C7.05479 11.6382 7.11624 11.7783 7.03152 11.9403C6.9468 12.1023 6.79877 12.1362 6.63305 12.1358C5.19714 12.1358 3.76108 12.1358 2.32486 12.1358C2.14285 12.1358 1.98877 12.0892 1.91382 11.9067C1.83888 11.7243 1.93105 11.5953 2.06092 11.4818C2.14271 11.4375 2.23528 11.417 2.32812 11.4226C3.76341 11.4226 5.19854 11.4226 6.63352 11.4226C6.74395 11.4187 6.85279 11.4498 6.94447 11.5115Z" fill="#C83D84"/>
<path d="M2.96072 10.5986C2.87062 10.5952 2.78528 10.5573 2.72232 10.4927C2.65935 10.4282 2.62354 10.342 2.6223 10.2518C2.6253 10.1615 2.6631 10.0757 2.72782 10.0126C2.79253 9.94943 2.87914 9.91373 2.96956 9.91294C3.05998 9.91593 3.14574 9.95372 3.20897 10.0184C3.2722 10.0831 3.308 10.1697 3.30891 10.2602C3.30567 10.3506 3.26765 10.4363 3.20278 10.4993C3.1379 10.5624 3.05118 10.598 2.96072 10.5986Z" fill="#C83D84"/>
<path d="M2.95798 6.84202C3.04889 6.84063 3.1367 6.87505 3.20245 6.93784C3.26821 7.00064 3.30663 7.08677 3.30943 7.17764C3.30969 7.22274 3.30092 7.26742 3.28364 7.30907C3.26636 7.35072 3.24092 7.38849 3.20882 7.42016C3.17672 7.45182 3.13861 7.47675 3.09673 7.49346C3.05485 7.51017 3.01005 7.51833 2.96496 7.51746C2.87682 7.51825 2.79183 7.48466 2.72804 7.42383C2.66425 7.36299 2.62667 7.27969 2.62329 7.19161C2.62178 7.101 2.65609 7.01346 2.71876 6.948C2.78143 6.88255 2.86739 6.84446 2.95798 6.84202Z" fill="#C83D84"/>
<path d="M9.08758 13.329C9.08809 13.374 9.07955 13.4187 9.06244 13.4604C9.04534 13.502 9.02004 13.5399 8.98803 13.5716C8.95603 13.6032 8.91798 13.6282 8.87615 13.6449C8.83432 13.6616 8.78955 13.6697 8.74452 13.6688C8.69948 13.6686 8.65494 13.6594 8.6135 13.6418C8.57207 13.6241 8.53459 13.5984 8.50327 13.566C8.47195 13.5336 8.44742 13.4953 8.43113 13.4534C8.41484 13.4114 8.40713 13.3665 8.40843 13.3215C8.41104 13.2336 8.44734 13.1501 8.50981 13.0883C8.57228 13.0264 8.65615 12.9909 8.74405 12.9892C8.78914 12.9881 8.83399 12.9961 8.8759 13.0128C8.91782 13.0294 8.95595 13.0544 8.98802 13.0861C9.02008 13.1178 9.04543 13.1557 9.06253 13.1974C9.07964 13.2391 9.08816 13.2839 9.08758 13.329Z" fill="#C83D84"/>
<path d="M5.20203 14.5305C5.24719 14.5311 5.2918 14.5406 5.33323 14.5586C5.37466 14.5766 5.41208 14.6027 5.44329 14.6353C5.47451 14.668 5.49889 14.7065 5.51501 14.7487C5.53114 14.7909 5.53868 14.8359 5.53719 14.8811C5.53167 14.9689 5.49395 15.0516 5.43125 15.1134C5.36855 15.1751 5.28528 15.2116 5.19737 15.2158C5.10644 15.2127 5.02014 15.1749 4.95624 15.1101C4.89234 15.0453 4.85569 14.9585 4.85384 14.8676C4.85413 14.8224 4.86342 14.7778 4.88116 14.7363C4.8989 14.6949 4.92474 14.6573 4.95716 14.6259C4.98959 14.5946 5.02794 14.57 5.06999 14.5536C5.11203 14.5372 5.15692 14.5294 5.20203 14.5305Z" fill="#C83D84"/>
<path d="M1.35567 11.7987C1.35169 11.8895 1.31263 11.9752 1.24672 12.0377C1.18081 12.1002 1.0932 12.1347 1.00236 12.1339C0.911725 12.1292 0.826459 12.0895 0.764539 12.0232C0.702619 11.9568 0.66889 11.869 0.670459 11.7783C0.676525 11.6906 0.71531 11.6085 0.77912 11.5481C0.84293 11.4878 0.927099 11.4536 1.01493 11.4524C1.10573 11.4541 1.19225 11.4913 1.25595 11.5561C1.31965 11.6208 1.35545 11.7079 1.35567 11.7987Z" fill="#C83D84"/>
<path d="M5.47462 5.85972C5.11852 5.85972 5.04636 5.78617 5.05288 5.43007C5.09943 2.79115 7.05453 0.513466 9.67296 0.0866034C11.6453 -0.235056 13.3439 0.341231 14.7204 1.78335C15.6337 2.73995 16.1215 3.90137 16.2002 5.22804C16.2053 5.32114 16.2197 5.41424 16.2202 5.50734C16.2202 5.75126 16.1145 5.85972 15.8706 5.86205C15.5448 5.86531 15.2189 5.86205 14.8931 5.86205L5.47462 5.85972Z" fill="#5BBCD8"/>
</svg>
