<svg width="20" height="18" viewBox="0 0 20 18" fill="none" xmlns="http://www.w3.org/2000/svg">
<path d="M14.6329 5.89021C14.3039 5.7003 13.8809 5.7003 13.505 5.89021L10.8731 7.45697L9.08721 8.45401L6.50236 10.0208C6.17337 10.2107 5.7504 10.2107 5.37442 10.0208L3.35353 8.78635C3.02455 8.59644 2.78956 8.21662 2.78956 7.78932V5.41543C2.78956 5.03561 2.97755 4.65579 3.35353 4.4184L5.37442 3.23145C5.7034 3.04154 6.12638 3.04154 6.50236 3.23145L8.52324 4.46588C8.85223 4.65579 9.08721 5.03561 9.08721 5.46291V7.02967L10.8731 5.98516V4.37092C10.8731 3.9911 10.6851 3.61128 10.3091 3.37389L6.54935 1.14243C6.22037 0.952522 5.7974 0.952522 5.42142 1.14243L1.56763 3.42136C1.19165 3.61128 1.00366 3.9911 1.00366 4.37092V8.83383C1.00366 9.21365 1.19165 9.59347 1.56763 9.83086L5.37442 12.0623C5.7034 12.2522 6.12638 12.2522 6.50236 12.0623L9.08721 10.543L10.8731 9.49852L13.458 7.97923C13.787 7.78932 14.2099 7.78932 14.5859 7.97923L16.6068 9.16617C16.9358 9.35608 17.1708 9.73591 17.1708 10.1632V12.5371C17.1708 12.9169 16.9828 13.2967 16.6068 13.5341L14.6329 14.7211C14.3039 14.911 13.8809 14.911 13.505 14.7211L11.4841 13.5341C11.1551 13.3442 10.9201 12.9644 10.9201 12.5371V11.0178L9.13421 12.0623V13.6291C9.13421 14.0089 9.3222 14.3887 9.69818 14.6261L13.505 16.8576C13.8339 17.0475 14.2569 17.0475 14.6329 16.8576L18.4397 14.6261C18.7687 14.4362 19.0037 14.0564 19.0037 13.6291V9.11869C19.0037 8.73887 18.8157 8.35905 18.4397 8.12166L14.6329 5.89021Z" fill="#7B47E1"/>
<path d="M14.6329 5.89021L14.6835 5.80393L14.6829 5.8036L14.6329 5.89021ZM13.505 5.89021L13.4598 5.80073L13.4538 5.80428L13.505 5.89021ZM10.8731 7.45697L10.9219 7.54432L10.9243 7.5429L10.8731 7.45697ZM9.08721 8.45401L9.03844 8.36664L9.03538 8.36849L9.08721 8.45401ZM6.50236 10.0208L6.55236 10.1074L6.55419 10.1063L6.50236 10.0208ZM5.37442 10.0208L5.32212 10.1064L5.32933 10.11L5.37442 10.0208ZM3.35353 8.78635L3.40567 8.70098L3.40353 8.69974L3.35353 8.78635ZM3.35353 4.4184L3.30286 4.33213L3.30014 4.33384L3.35353 4.4184ZM5.37442 3.23145L5.32442 3.14485L5.32377 3.14523L5.37442 3.23145ZM6.50236 3.23145L6.55465 3.14584L6.54744 3.14219L6.50236 3.23145ZM8.52324 4.46588L8.4711 4.55124L8.47325 4.55248L8.52324 4.46588ZM9.08721 7.02967H8.98721V7.20401L9.1377 7.11599L9.08721 7.02967ZM10.8731 5.98516L10.9236 6.07148L10.9731 6.04252V5.98516H10.8731ZM10.3091 3.37389L10.3626 3.2893L10.3602 3.28789L10.3091 3.37389ZM6.54935 1.14243L6.6004 1.05643L6.59935 1.05583L6.54935 1.14243ZM5.42142 1.14243L5.37623 1.05298L5.37052 1.05636L5.42142 1.14243ZM1.56763 3.42136L1.61282 3.51082L1.61853 3.50744L1.56763 3.42136ZM1.56763 9.83086L1.51421 9.91546L1.51706 9.91713L1.56763 9.83086ZM5.37442 12.0623L5.32385 12.1486L5.32442 12.1489L5.37442 12.0623ZM6.50236 12.0623L6.54753 12.1518L6.55303 12.1485L6.50236 12.0623ZM9.08721 10.543L9.03673 10.4567L9.03654 10.4568L9.08721 10.543ZM10.8731 9.49852L10.9236 9.58484L10.9238 9.58473L10.8731 9.49852ZM13.458 7.97923L13.408 7.89262L13.4073 7.89302L13.458 7.97923ZM14.5859 7.97923L14.6367 7.89283L14.631 7.88997L14.5859 7.97923ZM16.6068 9.16617L16.5562 9.2524L16.5568 9.25278L16.6068 9.16617ZM16.6068 13.5341L16.6583 13.6198L16.6602 13.6187L16.6068 13.5341ZM14.6329 14.7211L14.6829 14.8077L14.6844 14.8068L14.6329 14.7211ZM13.505 14.7211L13.4542 14.8075L13.4599 14.8103L13.505 14.7211ZM11.4841 13.5341L11.5347 13.4479L11.5341 13.4475L11.4841 13.5341ZM10.9201 11.0178H11.0201V10.8435L10.8696 10.9315L10.9201 11.0178ZM9.13421 12.0623L9.08372 11.976L9.03421 12.005V12.0623H9.13421ZM9.69818 14.6261L9.64476 14.7107L9.64761 14.7124L9.69818 14.6261ZM13.505 16.8576L13.4544 16.9438L13.455 16.9442L13.505 16.8576ZM14.6329 16.8576L14.6781 16.947L14.6835 16.9438L14.6329 16.8576ZM18.4397 14.6261L18.3897 14.5395L18.3891 14.5398L18.4397 14.6261ZM18.4397 8.12166L18.4931 8.03706L18.4903 8.03539L18.4397 8.12166ZM14.6829 5.8036C14.3211 5.59476 13.8621 5.59778 13.4599 5.80095L13.5501 5.97947C13.8998 5.80281 14.2867 5.80583 14.5829 5.97681L14.6829 5.8036ZM13.4538 5.80428L10.822 7.37105L10.9243 7.5429L13.5561 5.97613L13.4538 5.80428ZM10.8244 7.36966L9.03847 8.36669L9.13596 8.54132L10.9219 7.54429L10.8244 7.36966ZM9.03538 8.36849L6.45052 9.93525L6.55419 10.1063L9.13905 8.53952L9.03538 8.36849ZM6.45236 9.93417C6.15617 10.1052 5.76924 10.1082 5.41951 9.93151L5.32933 10.11C5.73155 10.3132 6.19058 10.3162 6.55235 10.1074L6.45236 9.93417ZM5.42655 9.93543L3.40566 8.70101L3.3014 8.87169L5.32229 10.1061L5.42655 9.93543ZM3.40353 8.69974C3.1052 8.52753 2.88956 8.18056 2.88956 7.78932H2.68956C2.68956 8.25268 2.9439 8.66535 3.30354 8.87295L3.40353 8.69974ZM2.88956 7.78932V5.41543H2.68956V7.78932H2.88956ZM2.88956 5.41543C2.88956 5.06932 3.06046 4.7217 3.40692 4.50295L3.30014 4.33384C2.89464 4.58987 2.68956 5.00189 2.68956 5.41543H2.88956ZM3.40418 4.50462L5.42506 3.31768L5.32377 3.14523L3.30289 4.33217L3.40418 4.50462ZM5.42441 3.31806C5.72061 3.14707 6.10753 3.14406 6.45727 3.32071L6.54744 3.14219C6.14522 2.93903 5.68619 2.93601 5.32442 3.14485L5.42441 3.31806ZM6.45023 3.31679L8.47112 4.55121L8.57537 4.38054L6.55448 3.14612L6.45023 3.31679ZM8.47325 4.55248C8.77158 4.7247 8.98721 5.07167 8.98721 5.46291H9.18721C9.18721 4.99955 8.93288 4.58688 8.57324 4.37927L8.47325 4.55248ZM8.98721 5.46291V7.02967H9.18721V5.46291H8.98721ZM9.1377 7.11599L10.9236 6.07148L10.8226 5.89884L9.03673 6.94335L9.1377 7.11599ZM10.9731 5.98516V4.37092H10.7731V5.98516H10.9731ZM10.9731 4.37092C10.9731 3.95738 10.768 3.54536 10.3625 3.28933L10.2558 3.45844C10.6022 3.67719 10.7731 4.02481 10.7731 4.37092H10.9731ZM10.3602 3.28789L6.60039 1.05644L6.49832 1.22843L10.2581 3.45988L10.3602 3.28789ZM6.59935 1.05583C6.23758 0.846991 5.77855 0.850009 5.37633 1.05317L5.4665 1.23169C5.81624 1.05504 6.20316 1.05805 6.49936 1.22904L6.59935 1.05583ZM5.37052 1.05636L1.51673 3.33529L1.61853 3.50744L5.47232 1.22851L5.37052 1.05636ZM1.52254 3.33211C1.10791 3.54154 0.903662 3.95929 0.903662 4.37092H1.10366C1.10366 4.0229 1.2754 3.68101 1.61272 3.51062L1.52254 3.33211ZM0.903662 4.37092V8.83383H1.10366V4.37092H0.903662ZM0.903662 8.83383C0.903662 9.24736 1.10874 9.65939 1.51424 9.91542L1.62102 9.7463C1.27456 9.52755 1.10366 9.17993 1.10366 8.83383H0.903662ZM1.51706 9.91713L5.32385 12.1486L5.42499 11.976L1.6182 9.74459L1.51706 9.91713ZM5.32442 12.1489C5.68619 12.3578 6.14522 12.3547 6.54744 12.1516L6.45727 11.9731C6.10753 12.1497 5.72061 12.1467 5.42441 11.9757L5.32442 12.1489ZM6.55303 12.1485L9.13789 10.6292L9.03654 10.4568L6.45168 11.9761L6.55303 12.1485ZM9.1377 10.6293L10.9236 9.58484L10.8226 9.4122L9.03673 10.4567L9.1377 10.6293ZM10.9238 9.58473L13.5086 8.06544L13.4073 7.89302L10.8224 9.4123L10.9238 9.58473ZM13.508 8.06583C13.8042 7.89485 14.1911 7.89183 14.5408 8.06849L14.631 7.88997C14.2288 7.6868 13.7697 7.68379 13.408 7.89262L13.508 8.06583ZM14.5353 8.06546L16.5562 9.2524L16.6574 9.07994L14.6366 7.893L14.5353 8.06546ZM16.5568 9.25278C16.8551 9.42499 17.0708 9.77197 17.0708 10.1632H17.2708C17.2708 9.69984 17.0164 9.28717 16.6568 9.07957L16.5568 9.25278ZM17.0708 10.1632V12.5371H17.2708V10.1632H17.0708ZM17.0708 12.5371C17.0708 12.8832 16.8999 13.2308 16.5534 13.4496L16.6602 13.6187C17.0657 13.3627 17.2708 12.9506 17.2708 12.5371H17.0708ZM16.5553 13.4484L14.5814 14.6354L14.6844 14.8068L16.6583 13.6198L16.5553 13.4484ZM14.5829 14.6345C14.2867 14.8054 13.8998 14.8085 13.5501 14.6318L13.4599 14.8103C13.8621 15.0135 14.3211 15.0165 14.6829 14.8077L14.5829 14.6345ZM13.5556 14.6348L11.5347 13.4479L11.4334 13.6204L13.4543 14.8073L13.5556 14.6348ZM11.5341 13.4475C11.2357 13.2753 11.0201 12.9283 11.0201 12.5371H10.8201C10.8201 13.0005 11.0744 13.4131 11.4341 13.6207L11.5341 13.4475ZM11.0201 12.5371V11.0178H10.8201V12.5371H11.0201ZM10.8696 10.9315L9.08372 11.976L9.1847 12.1486L10.9706 11.1041L10.8696 10.9315ZM9.03421 12.0623V13.6291H9.23421V12.0623H9.03421ZM9.03421 13.6291C9.03421 14.0426 9.23929 14.4546 9.64479 14.7107L9.75157 14.5416C9.40511 14.3228 9.23421 13.9752 9.23421 13.6291H9.03421ZM9.64761 14.7124L13.4544 16.9438L13.5555 16.7713L9.74875 14.5398L9.64761 14.7124ZM13.455 16.9442C13.8167 17.153 14.2758 17.15 14.678 16.9468L14.5878 16.7683C14.2381 16.945 13.8512 16.9419 13.555 16.771L13.455 16.9442ZM14.6835 16.9438L18.4903 14.7124L18.3891 14.5398L14.5823 16.7713L14.6835 16.9438ZM18.4897 14.7127C18.8493 14.5051 19.1037 14.0924 19.1037 13.6291H18.9037C18.9037 14.0203 18.688 14.3673 18.3897 14.5395L18.4897 14.7127ZM19.1037 13.6291V9.11869H18.9037V13.6291H19.1037ZM19.1037 9.11869C19.1037 8.70516 18.8986 8.29313 18.4931 8.03711L18.3863 8.20622C18.7328 8.42497 18.9037 8.77259 18.9037 9.11869H19.1037ZM18.4903 8.03539L14.6835 5.80394L14.5823 5.97648L18.3891 8.20793L18.4903 8.03539Z" fill="#7B47E1"/>
</svg>
