<svg width="24" height="24" viewBox="0 0 24 24" fill="none" xmlns="http://www.w3.org/2000/svg">
<circle cx="12" cy="12" r="12" fill="#1B2A3F"/>
<g clip-path="url(#clip0_6983_17713)">
<path d="M16.9492 6H18.9726L14.7617 10.3155C13.2367 11.8775 10.7643 11.8775 9.23821 10.3155L5.02563 6H7.05071L10.2499 9.27821C10.7161 9.75371 11.3442 10.0203 11.9987 10.0203C12.6532 10.0203 13.2813 9.75371 13.7475 9.27821L16.9492 6Z" fill="white"/>
<path d="M7.0248 18H5L9.23828 13.6579C10.7632 12.096 13.2357 12.096 14.7617 13.6579L19 18H16.9766L13.75 14.6952C13.2839 14.2197 12.6557 13.9531 12.0012 13.9531C11.3468 13.9531 10.7186 14.2197 10.2525 14.6952L7.0248 18Z" fill="white"/>
</g>
<defs>
<clipPath id="clip0_6983_17713">
<rect width="14" height="12" fill="white" transform="translate(5 6)"/>
</clipPath>
</defs>
</svg>
