<svg width="24" height="24" viewBox="0 0 24 24" fill="none" xmlns="http://www.w3.org/2000/svg">
<path d="M12 24C18.6274 24 24 18.6274 24 12C24 5.37258 18.6274 0 12 0C5.37258 0 0 5.37258 0 12C0 18.6274 5.37258 24 12 24Z" fill="#F0B92E"/>
<path d="M7.72517 6.47643L11.9522 4.01592L16.1792 6.47643L14.6251 7.3854L11.9522 5.83388L9.27923 7.3854L7.72517 6.47643ZM16.1792 9.57948L14.6251 8.6705L11.9522 10.222L9.27923 8.6705L7.72517 9.57948V11.3974L10.3981 12.949V16.052L11.9522 16.961L13.5062 16.052V12.949L16.1792 11.3974V9.57948ZM16.1792 14.5005V12.6825L14.6251 13.5915V15.4094L16.1792 14.5005ZM17.2826 15.143L14.6096 16.6945V18.5125L18.8367 16.052V11.131L17.2826 12.04V15.143ZM15.7285 8.02795L17.2826 8.93693V10.7549L18.8367 9.8459V8.02795L17.2826 7.11898L15.7285 8.02795ZM10.3981 17.3528V19.1707L11.9522 20.0797L13.5062 19.1707V17.3528L11.9522 18.2617L10.3981 17.3528ZM7.72517 14.5005L9.27923 15.4094V13.5915L7.72517 12.6825V14.5005ZM10.3981 8.02795L11.9522 8.93693L13.5062 8.02795L11.9522 7.11898L10.3981 8.02795ZM6.62178 8.93693L8.17583 8.02795L6.62178 7.11898L5.06773 8.02795V9.8459L6.62178 10.7549V8.93693ZM6.62178 12.04L5.06773 11.131V16.052L9.29473 18.5125V16.6945L6.62178 15.143V12.04Z" fill="white"/>
</svg>
