<svg width="24" height="24" viewBox="0 0 24 24" fill="none" xmlns="http://www.w3.org/2000/svg">
<mask id="mask0_0_3" style="mask-type:alpha" maskUnits="userSpaceOnUse" x="0" y="0" width="24" height="24">
<rect width="24" height="24" fill="#D9D9D9"/>
</mask>
<g mask="url(#mask0_0_3)">
<circle cx="12" cy="12" r="12" fill="#F5F5F5"/>
<path d="M19 7.53087V12.4463C19 12.8704 18.6519 13.2142 18.2224 13.2142H15.8888H6.55525H5.31091C5.31091 13.6049 5.4805 13.9772 5.77625 14.2366L7.32805 15.5987C7.82647 16.0357 8.11119 16.6626 8.11119 17.3209V17.8226C8.11119 18.6708 7.41491 19.3583 6.55594 19.3583C5.69697 19.3583 5 18.6701 5 17.8219V13.2142V11.6785C5 10.8303 5.69628 10.1428 6.55525 10.1428H11.7298C12.3964 10.1428 13.0306 10.4239 13.4739 10.9161L14.8534 12.4484C15.116 12.7404 15.4931 12.9078 15.8888 12.9078V7.07138H6.55525C5.69628 7.07138 5 6.38386 5 5.53569C5 4.68752 5.69628 4 6.55525 4H11.7298C12.3964 4 13.0306 4.28113 13.4739 4.77329L14.8534 6.30558C15.116 6.5976 15.4931 6.76506 15.8888 6.76506H18.2224C18.6519 6.76234 19 7.10678 19 7.53087Z" fill="#171717"/>
</g>
</svg>
