<svg width="24" height="24" viewBox="0 0 24 24" fill="none" xmlns="http://www.w3.org/2000/svg">
<circle cx="12" cy="12" r="12" fill="#23274D"/>
<path d="M3 12.6185C3.02188 12.585 3.04236 12.5506 3.06703 12.5185C3.09388 12.4804 3.12838 12.4483 3.16832 12.4244C3.20827 12.4004 3.25278 12.385 3.29901 12.3792C3.34523 12.3735 3.39216 12.3774 3.43678 12.3908C3.4814 12.4042 3.52273 12.4267 3.55813 12.457C3.59382 12.4868 3.62306 12.5236 3.64407 12.565C3.66508 12.6065 3.67742 12.6518 3.68034 12.6982C3.68326 12.7446 3.67669 12.7911 3.66104 12.8349C3.64539 12.8786 3.62099 12.9187 3.58932 12.9528C3.55636 12.9878 3.51636 13.0154 3.47195 13.0337C3.42755 13.0521 3.37974 13.0609 3.3317 13.0594C3.28366 13.058 3.23648 13.0463 3.19326 13.0253C3.15004 13.0043 3.11178 12.9743 3.081 12.9374C3.0512 12.9034 3.02653 12.8643 3 12.8276V12.6185Z" fill="#C83D84"/>
<path d="M20.8369 15.6806L20.8686 15.6839V15.8929C20.8582 15.8947 20.8478 15.8958 20.8374 15.8962C20.8225 15.8824 20.8107 15.8658 20.8025 15.8473C20.7944 15.8287 20.7902 15.8087 20.7902 15.7885C20.7901 15.7683 20.7943 15.7483 20.8023 15.7297C20.8103 15.7111 20.8221 15.6944 20.8369 15.6806Z" fill="#C83D84"/>
<path d="M7.34576 11.5186C7.28758 11.5186 7.22892 11.5186 7.1712 11.5186C6.97476 11.506 6.84116 11.3701 6.83977 11.1848C6.83837 10.9995 6.97383 10.859 7.16841 10.845C7.22613 10.8403 7.28478 10.845 7.34251 10.845C11.5357 10.845 15.7288 10.845 19.9217 10.845C19.9913 10.842 20.061 10.8442 20.1302 10.8515C20.2118 10.8623 20.2864 10.9032 20.3392 10.9663C20.3921 11.0294 20.4193 11.11 20.4156 11.1923C20.4158 11.2743 20.3852 11.3534 20.3297 11.4138C20.2742 11.4742 20.198 11.5114 20.1162 11.5181C20.0582 11.5225 19.9999 11.5239 19.9417 11.5223L7.34576 11.5186Z" fill="#C83D84"/>
<path d="M18.4368 13.9128C18.4949 13.9101 18.5531 13.9117 18.6109 13.9174C18.6892 13.9286 18.7612 13.9664 18.815 14.0243C18.8688 14.0823 18.9011 14.1569 18.9065 14.2358C18.9084 14.3148 18.8836 14.3921 18.8363 14.4553C18.7889 14.5186 18.7217 14.5641 18.6454 14.5845C18.577 14.5974 18.5073 14.6024 18.4378 14.5994H7.31233C7.26001 14.6016 7.2076 14.6004 7.15545 14.5957C7.06813 14.5852 6.9878 14.5427 6.93001 14.4764C6.87222 14.4101 6.84109 14.3247 6.84264 14.2368C6.84816 14.1519 6.88477 14.072 6.94549 14.0124C7.00621 13.9528 7.08676 13.9176 7.17174 13.9137C7.22341 13.9095 7.27602 13.9137 7.32862 13.9137L18.4368 13.9128Z" fill="#C83D84"/>
<path d="M9.28253 12.3759C10.8299 12.3759 12.377 12.3759 13.924 12.3759C14.2299 12.3759 14.4063 12.5938 14.3053 12.8414C14.2836 12.899 14.2464 12.9495 14.1979 12.9873C14.1493 13.0251 14.0913 13.0487 14.0302 13.0556C13.9723 13.0616 13.9142 13.0635 13.8561 13.0612C10.8024 13.0612 7.74855 13.0612 4.69457 13.0612C4.6193 13.0639 4.54398 13.0576 4.47019 13.0425C4.39329 13.0233 4.32578 12.9772 4.27986 12.9126C4.23393 12.848 4.21262 12.7691 4.21976 12.6902C4.22417 12.6111 4.25672 12.5363 4.31154 12.4791C4.36636 12.422 4.43981 12.3864 4.51861 12.3787C4.57667 12.374 4.63496 12.3728 4.69317 12.375L9.28253 12.3759Z" fill="#C83D84"/>
<path d="M20.8369 15.6806C20.8369 15.7523 20.8374 15.8245 20.8374 15.8962C20.7661 16.0824 20.6201 16.1365 20.4353 16.136C19.499 16.136 18.5629 16.136 17.6269 16.136H11.2603C11.2138 16.136 11.1672 16.136 11.1207 16.136C10.8972 16.1271 10.7418 15.9805 10.7455 15.7836C10.7492 15.5867 10.8954 15.454 11.1179 15.4517C11.5596 15.448 12.0023 15.4517 12.4436 15.4517C15.1007 15.4517 17.7579 15.4517 20.4153 15.4517C20.6029 15.4485 20.7643 15.4805 20.8369 15.6806Z" fill="#C83D84"/>
<path d="M15.8615 17.6685C14.919 17.6685 13.9767 17.6685 13.0345 17.6685C12.8832 17.6685 12.7552 17.6261 12.6747 17.4981C12.6467 17.4537 12.6297 17.4032 12.6251 17.3509C12.6205 17.2986 12.6286 17.246 12.6485 17.1974C12.6684 17.1488 12.6996 17.1057 12.7395 17.0716C12.7795 17.0375 12.827 17.0134 12.8781 17.0014C12.9526 16.988 13.0283 16.9827 13.1039 16.9856C14.9532 16.9856 16.8027 16.9856 18.6526 16.9856C18.6875 16.9856 18.7229 16.9856 18.7574 16.9856C18.9757 16.9991 19.1214 17.1402 19.1163 17.3324C19.1111 17.5247 18.9524 17.6657 18.7406 17.6662C17.9614 17.6662 17.1817 17.6662 16.4024 17.6662L15.8615 17.6685Z" fill="#C83D84"/>
<path d="M12.3225 18.5304H15.1466C15.4106 18.5304 15.5623 18.6552 15.5609 18.8679C15.5609 19.0718 15.3901 19.2156 15.142 19.2156C13.2595 19.2156 11.3769 19.2156 9.49409 19.2156C9.20781 19.2156 9.02254 19.0201 9.07979 18.786C9.12076 18.6179 9.24784 18.5309 9.46337 18.5309C10.3751 18.5309 11.2873 18.5309 12.2 18.5309L12.3225 18.5304Z" fill="#C83D84"/>
<path d="M9.94447 15.5115C10.0548 15.6382 10.1162 15.7783 10.0315 15.9403C9.9468 16.1023 9.79877 16.1362 9.63305 16.1358C8.19714 16.1358 6.76108 16.1358 5.32486 16.1358C5.14285 16.1358 4.98877 16.0892 4.91382 15.9067C4.83888 15.7243 4.93105 15.5953 5.06092 15.4818C5.14271 15.4375 5.23528 15.417 5.32812 15.4226C6.76341 15.4226 8.19854 15.4226 9.63352 15.4226C9.74395 15.4187 9.85279 15.4498 9.94447 15.5115Z" fill="#C83D84"/>
<path d="M5.96072 14.5986C5.87062 14.5952 5.78528 14.5573 5.72232 14.4927C5.65935 14.4282 5.62354 14.342 5.6223 14.2518C5.6253 14.1615 5.6631 14.0757 5.72782 14.0126C5.79253 13.9494 5.87914 13.9137 5.96956 13.9129C6.05998 13.9159 6.14574 13.9537 6.20897 14.0184C6.2722 14.0831 6.308 14.1697 6.30891 14.2602C6.30567 14.3506 6.26765 14.4363 6.20278 14.4993C6.1379 14.5624 6.05118 14.598 5.96072 14.5986Z" fill="#C83D84"/>
<path d="M5.95798 10.842C6.04889 10.8406 6.1367 10.8751 6.20245 10.9378C6.26821 11.0006 6.30663 11.0868 6.30943 11.1776C6.30969 11.2227 6.30092 11.2674 6.28364 11.3091C6.26636 11.3507 6.24092 11.3885 6.20882 11.4202C6.17672 11.4518 6.13861 11.4767 6.09673 11.4935C6.05485 11.5102 6.01005 11.5183 5.96496 11.5175C5.87682 11.5182 5.79183 11.4847 5.72804 11.4238C5.66425 11.363 5.62667 11.2797 5.62329 11.1916C5.62178 11.101 5.65609 11.0135 5.71876 10.948C5.78143 10.8825 5.86739 10.8445 5.95798 10.842Z" fill="#C83D84"/>
<path d="M12.0876 17.329C12.0881 17.374 12.0795 17.4187 12.0624 17.4604C12.0453 17.502 12.02 17.5399 11.988 17.5716C11.956 17.6032 11.918 17.6282 11.8761 17.6449C11.8343 17.6616 11.7896 17.6697 11.7445 17.6688C11.6995 17.6686 11.6549 17.6594 11.6135 17.6418C11.5721 17.6241 11.5346 17.5984 11.5033 17.566C11.4719 17.5336 11.4474 17.4953 11.4311 17.4534C11.4148 17.4114 11.4071 17.3665 11.4084 17.3215C11.411 17.2336 11.4473 17.1501 11.5098 17.0883C11.5723 17.0264 11.6561 16.9909 11.7441 16.9892C11.7891 16.9881 11.834 16.9961 11.8759 17.0128C11.9178 17.0294 11.956 17.0544 11.988 17.0861C12.0201 17.1178 12.0454 17.1557 12.0625 17.1974C12.0796 17.2391 12.0882 17.2839 12.0876 17.329Z" fill="#C83D84"/>
<path d="M8.20203 18.5305C8.24719 18.5311 8.2918 18.5406 8.33323 18.5586C8.37466 18.5766 8.41208 18.6027 8.44329 18.6353C8.47451 18.668 8.49889 18.7065 8.51501 18.7487C8.53114 18.7909 8.53868 18.8359 8.53719 18.8811C8.53167 18.9689 8.49395 19.0516 8.43125 19.1134C8.36855 19.1751 8.28528 19.2116 8.19737 19.2158C8.10644 19.2127 8.02014 19.1749 7.95624 19.1101C7.89234 19.0453 7.85569 18.9585 7.85384 18.8676C7.85413 18.8224 7.86342 18.7778 7.88116 18.7363C7.8989 18.6949 7.92474 18.6573 7.95716 18.6259C7.98959 18.5946 8.02794 18.57 8.06999 18.5536C8.11203 18.5372 8.15692 18.5294 8.20203 18.5305Z" fill="#C83D84"/>
<path d="M4.35567 15.7987C4.35169 15.8895 4.31263 15.9752 4.24672 16.0377C4.18081 16.1002 4.0932 16.1347 4.00236 16.1339C3.91173 16.1292 3.82646 16.0895 3.76454 16.0232C3.70262 15.9568 3.66889 15.869 3.67046 15.7783C3.67652 15.6906 3.71531 15.6085 3.77912 15.5481C3.84293 15.4878 3.9271 15.4536 4.01493 15.4524C4.10573 15.4541 4.19225 15.4913 4.25595 15.5561C4.31965 15.6208 4.35545 15.7079 4.35567 15.7987Z" fill="#C83D84"/>
<path d="M8.47462 9.85972C8.11852 9.85972 8.04636 9.78617 8.05288 9.43007C8.09943 6.79115 10.0545 4.51347 12.673 4.0866C14.6453 3.76494 16.3439 4.34123 17.7204 5.78335C18.6337 6.73995 19.1215 7.90137 19.2002 9.22804C19.2053 9.32114 19.2197 9.41424 19.2202 9.50734C19.2202 9.75126 19.1145 9.85972 18.8706 9.86205C18.5448 9.86531 18.2189 9.86205 17.8931 9.86205L8.47462 9.85972Z" fill="#5BBCD8"/>
</svg>
